<svg xmlns="http://www.w3.org/2000/svg" xmlns:xlink="http://www.w3.org/1999/xlink" width="145.999" height="24.075" viewBox="0 0 145.999 24.075">
  <defs>
    <clipPath id="clip-path">
      <path id="Path_2" data-name="Path 2" d="M15.925,9.368,26,9.175l-8.267,5.588L21.034,24,13,18.1,4.966,24l3.3-9.234L0,9.175l10.074.193L13,.016Zm30-.02L56,9.156l-8.267,5.6L51.034,24,43,18.09,34.966,24l3.3-9.246L30,9.156l10.074.193L43-.016Zm30-.019L86,9.137l-8.267,5.6L81.034,24,73,18.082,64.966,24l3.3-9.258L60,9.137l10.074.192L73-.047Zm30-.019L116,9.117l-8.267,5.61,3.3,9.27L103,18.075,94.966,24l3.3-9.27L90,9.117l10.074.193L103-.078Zm30,0L146,9.117l-8.267,5.61,3.3,9.27L133,18.075,124.966,24l3.3-9.27L120,9.117l10.074.193L133-.078Z" fill="#fff" stroke="#707070" stroke-width="1"/>
    </clipPath>
  </defs>
  <g id="bg_rating_active" transform="translate(0 0.078)" style="isolation: isolate">
    <g id="Group_1" data-name="Group 1" clip-path="url(#clip-path)">
      <path id="Path_1" data-name="Path 1" d="M15.925,9.368,26,9.175l-8.267,5.588L21.034,24,13,18.1,4.966,24l3.3-9.234L0,9.175l10.074.193L13,.016Zm30-.02L56,9.156l-8.267,5.6L51.034,24,43,18.09,34.966,24l3.3-9.246L30,9.156l10.074.193L43-.016Zm30-.019L86,9.137l-8.267,5.6L81.034,24,73,18.082,64.966,24l3.3-9.258L60,9.137l10.074.192L73-.047Zm30-.019L116,9.117l-8.267,5.61,3.3,9.27L103,18.075,94.966,24l3.3-9.27L90,9.117l10.074.193L103-.078Zm30,0L146,9.117l-8.267,5.61,3.3,9.27L133,18.075,124.966,24l3.3-9.27L120,9.117l10.074.193L133-.078Z" fill="#fff" stroke="#3cd072" stroke-miterlimit="20" stroke-width="2"/>
    </g>
  </g>
</svg>
